<svg width="227" height="29" viewBox="0 0 227 29" fill="none" xmlns="http://www.w3.org/2000/svg">
<g clip-path="url(#clip0_1219_408)">
<path d="M21.2805 25.8438C21.2805 25.8438 25.9489 20.6101 27.3626 14.3431C28.7105 8.34714 30.0831 3.39285 34.4804 1.47042C40.0612 -0.977096 44.5077 3.14725 43.7433 8.16083C42.9789 13.1744 38.9187 13.8266 38.9187 13.8266C38.9187 13.8266 44.516 15.6388 41.9762 22.4986C39.7899 28.4099 32.5653 29.0451 29.0475 27.6647C26.9187 26.8263 24.2476 25.6999 21.2805 25.8438Z" fill="#DBDC3F"/>
<path d="M21.0586 10.5321C20.8449 13.5386 20.1956 16.3164 21.4614 17.5359C22.3819 18.4251 23.0312 18.6284 23.0312 18.6284C23.0312 18.6284 20.9765 19.5853 19.3572 22.1175C17.9024 24.3788 16.6531 26.8856 13.1765 27.851C7.39844 29.4517 3.41218 26.4113 1.80945 22.939C0.765623 20.6779 -0.409714 14.5209 3.57656 7.72046C7.77653 0.555782 13.2258 -0.130199 17.1381 1.35185C20.5737 2.65607 21.297 7.12763 21.0586 10.5321Z" fill="#6E86BC"/>
<path d="M106.957 15.9521L107.179 14.3431C104.844 13.6317 101.425 13.1829 98.647 12.9881L98.4744 14.5209C101.417 14.8259 104.162 15.1137 106.957 15.9521Z" fill="#3E3A39"/>
<path d="M97.2251 19.9072C100.611 20.3221 103.809 20.9573 108.14 23.0322L108.428 21.1521C105.798 19.8733 100.669 18.4251 97.4142 18.2304L97.2251 19.8987V19.9072Z" fill="#3E3A39"/>
<path d="M108.017 8.92303C105.427 8.34715 101.499 7.95758 98.3839 7.89829L98.2771 9.40576C101.179 9.44811 104.195 9.71911 107.77 10.5491L108.008 8.92303H108.017Z" fill="#3E3A39"/>
<path d="M116.647 21.042L117.329 22.7273C122.573 20.6101 125.253 17.3495 125.696 12.0904L124.118 11.7685C123.625 16.4773 121.176 19.5938 116.655 21.042" fill="#3E3A39"/>
<path d="M162.509 7.66964L161.375 8.32174C162.28 9.05007 163.224 10.3119 163.545 10.9048L164.787 10.1341C164.285 9.24485 163.167 8.20319 162.517 7.66964" fill="#3E3A39"/>
<path d="M153.164 18.4675C153.164 18.3405 153.181 16.7822 153.206 15.6812C155.54 15.0037 159.542 13.6232 162.362 12.2598L161.26 10.7184C159.337 11.7517 155.827 13.1575 153.271 13.9282L153.296 13.3777C153.337 12.3106 153.362 11.1249 153.403 10.0071C153.403 9.51587 153.419 8.33022 153.468 7.8729H151.619C151.644 8.21165 151.644 8.56735 151.644 8.97386V9.49045C151.644 9.49045 151.479 17.7307 151.479 19.1704C151.479 22.5071 154.841 22.8205 157.348 22.8205C159.008 22.8205 161.137 22.685 162.731 22.5241L162.764 20.6948C160.594 21.0505 158.794 21.1605 157.069 21.1605C153.724 21.1605 153.181 20.4492 153.181 18.459" fill="#3E3A39"/>
<path d="M165.049 6.34001L163.956 7.03447C164.737 7.64422 165.682 8.66896 166.126 9.43963L167.351 8.62661C166.865 7.85594 165.559 6.6957 165.058 6.34001" fill="#3E3A39"/>
<path d="M175.997 19.5176C174.485 20.229 173.063 20.8472 171.591 21.0843C171.485 21.1013 171.443 21.1436 171.443 21.186C171.443 21.2283 171.468 21.2622 171.485 21.3046L173.096 22.7528C178.184 21.1352 183.263 17.8069 186.361 13.7841L184.997 12.3784C182.408 15.6643 179.58 17.8408 176.005 19.5176" fill="#3E3A39"/>
<path d="M204.148 10.1171C204.238 9.94775 204.238 9.75297 204.156 9.57512C203.934 9.1178 203.482 8.27092 203.153 8.27092C202.898 8.27092 202.75 8.38101 202.561 8.38101L200.153 8.39795C200.153 8.16929 200.153 7.90675 200.17 7.65268C200.17 7.16149 200.194 6.6957 200.21 6.45857H198.336C198.402 6.97518 198.402 7.29699 198.402 7.29699V8.41489L193.125 8.44876V9.94775L201.74 9.90541C201.18 11.3621 197.589 15.4864 190.677 18.4506C190.578 18.4844 190.529 18.5352 190.537 18.5775C190.537 18.6199 190.569 18.6453 190.603 18.6792L190.668 18.7384L192.197 19.7717C194.301 18.9078 196.586 17.6883 198.386 16.3333L198.271 22.6765H200.079L200.096 15.4695C201.55 16.2148 203.72 17.5104 205.758 19.4922L207.065 18.1711C205.775 16.9261 201.871 14.6649 200.729 14.1737C202.512 12.3444 203.934 10.5321 204.139 10.1256" fill="#3E3A39"/>
<path d="M113.327 13.0305C113.327 13.0305 114.247 14.6565 114.74 16.7567L116.384 16.1047C115.817 13.7841 114.937 12.463 114.897 12.3952L113.335 13.0305H113.327Z" fill="#3E3A39"/>
<path d="M120.148 14.6988C119.581 12.3868 118.701 11.0572 118.661 10.9894L117.099 11.6246C117.099 11.6246 118.02 13.2506 118.513 15.3509L120.156 14.6988H120.148Z" fill="#3E3A39"/>
<path d="M178.742 9.70216C176.646 8.3048 173.556 7.39863 173.417 7.36475L172.643 8.85528C172.643 8.85528 175.964 9.82919 177.814 11.0656L178.742 9.71064V9.70216Z" fill="#3E3A39"/>
<path d="M176.589 14.0213C174.492 12.6239 171.403 11.7178 171.263 11.6839L170.491 13.1744C170.491 13.1744 173.811 14.1484 175.66 15.3848L176.589 14.0298V14.0213Z" fill="#3E3A39"/>
<path d="M144.526 8.16084C144.271 8.16084 144.123 8.27094 143.935 8.27094L138.231 8.32174H136.447C135.806 9.70217 133.627 12.0989 130.545 14.1483L132.222 15.063C133.775 14.1314 135.271 12.878 137.12 10.6083L137.721 9.82921L143.269 9.79533C142.701 11.2773 139.735 18.3235 132.403 21.3214L132.313 21.3554C132.214 21.3892 132.165 21.44 132.173 21.4823C132.173 21.5248 132.206 21.5501 132.239 21.5841L132.305 21.6433L133.833 22.6765C136.907 21.4147 138.995 19.5092 140.787 17.4427C142.668 15.5372 145.315 10.4474 145.528 10.024C145.619 9.85462 145.619 9.65983 145.537 9.48198C145.315 9.02466 144.863 8.17777 144.534 8.17777" fill="#3E3A39"/>
<path d="M220.1 15.8845C221.736 13.6064 223.422 10.3458 223.594 10.0071C223.684 9.83768 223.684 9.6429 223.602 9.46505C223.38 9.00772 222.928 8.16084 222.599 8.16084C222.345 8.16084 222.197 8.27094 222.008 8.27094L212.778 8.33022V9.82921L221.334 9.78687C220.767 11.269 217.8 18.315 210.468 21.3131L210.378 21.3469C210.279 21.3807 210.23 21.4315 210.238 21.474C210.238 21.5163 210.271 21.5416 210.304 21.5756L210.37 21.6349L211.898 22.668C214.972 21.4062 217.06 19.5007 218.852 17.4343C218.892 17.3919 218.942 17.3411 218.983 17.2903C220.758 18.6707 223.248 20.8642 224.687 22.668L226.348 21.4655C224.704 19.7293 222 17.1718 220.109 15.893" fill="#3E3A39"/>
<path d="M86.1212 15.8845C87.7568 13.6064 89.4416 10.3458 89.6142 10.0071C89.7047 9.83768 89.7047 9.6429 89.6225 9.46505C89.4005 9.00772 88.9486 8.16084 88.6198 8.16084C88.3649 8.16084 88.217 8.27094 88.028 8.27094L78.7979 8.33022V9.82921L87.354 9.78687C86.7869 11.269 83.8198 18.315 76.4884 21.3131L76.3979 21.3469C76.2993 21.3807 76.25 21.4315 76.2582 21.474C76.2582 21.5163 76.291 21.5416 76.324 21.5756L76.3898 21.6349L77.9184 22.668C80.9925 21.4062 83.0801 19.5007 84.8718 17.4343C84.9129 17.3919 84.9622 17.3411 85.0033 17.2903C86.7787 18.6707 89.2691 20.8642 90.7074 22.668L92.3677 21.4655C90.7239 19.7293 88.0198 17.1718 86.1294 15.893" fill="#3E3A39"/>
<path d="M183.567 9.99011L184.808 9.21944C184.307 8.33022 183.189 7.28854 182.54 6.755L181.406 7.4071C182.309 8.13543 183.255 9.39729 183.575 9.99011" fill="#3E3A39"/>
<path d="M185.079 5.43385L183.986 6.12829C184.767 6.73805 185.712 7.76279 186.156 8.53346L187.381 7.72045C186.896 6.94978 185.589 5.78954 185.087 5.43385" fill="#3E3A39"/>
<path d="M59.0802 8.32174V9.82074L68.8773 9.77839V21.042H58.8994V22.6172H70.9568V10.3882C70.9568 9.89696 70.9733 8.71131 71.0226 8.25399L59.0802 8.31328V8.32174Z" fill="#3E3A39"/>
</g>
<defs>
<clipPath id="clip0_1219_408">
<rect width="226.2" height="29" fill="white" transform="translate(0.800049)"/>
</clipPath>
</defs>
</svg>
